<svg width="52" height="51" viewBox="0 0 52 51" fill="none" xmlns="http://www.w3.org/2000/svg">
<path d="M25.9999 48.1841C38.5745 48.1841 48.7683 37.9904 48.7683 25.4158C48.7683 12.8412 38.5745 2.64743 25.9999 2.64743C13.4253 2.64743 3.23157 12.8412 3.23157 25.4158C3.23157 37.9904 13.4253 48.1841 25.9999 48.1841Z" stroke="#F8F8F8" stroke-width="1.05899" stroke-linecap="round" stroke-linejoin="round"/>
<path d="M34.7684 31.4521C35.9471 30.9756 38.0428 30.3423 38.674 31.1069C39.356 31.934 38.494 33.73 37.6997 35.1247" stroke="#F8F8F8" stroke-width="1.05899" stroke-linecap="round" stroke-linejoin="round"/>
<path d="M13.0783 32.0059C14.941 33.4853 20.4425 35.7495 26.303 35.7495C30.1481 35.8401 33.9213 34.697 37.0697 32.4878M22.1919 21.3122V24.8069C22.1919 25.3686 22.4151 25.9073 22.8123 26.3045C23.2095 26.7017 23.7482 26.9249 24.3099 26.9249C24.8717 26.9249 25.4104 26.7017 25.8076 26.3045C26.2048 25.9073 26.4279 25.3686 26.4279 24.8069M26.4279 24.8069V21.3122M26.4279 24.8069V26.9249M11.5978 23.5361C11.5978 22.9744 11.8209 22.4356 12.2181 22.0384C12.6153 21.6412 13.154 21.4181 13.7158 21.4181C14.2775 21.4181 14.8162 21.6412 15.2134 22.0384C15.6106 22.4356 15.8338 22.9744 15.8338 23.5361M15.8338 23.5361V26.9249M15.8338 23.5361C15.8338 22.9744 16.0569 22.4356 16.4541 22.0384C16.8513 21.6412 17.39 21.4181 17.9517 21.4181C18.5135 21.4181 19.0522 21.6412 19.4494 22.0384C19.8466 22.4356 20.0697 22.9744 20.0697 23.5361V26.9249M11.5978 21.4181V26.9249" stroke="#F8F8F8" stroke-width="1.05899" stroke-linecap="round" stroke-linejoin="round"/>
<path d="M34.3448 19.4589C34.7542 19.4589 35.0861 19.127 35.0861 18.7176C35.0861 18.3082 34.7542 17.9763 34.3448 17.9763C33.9354 17.9763 33.6035 18.3082 33.6035 18.7176C33.6035 19.127 33.9354 19.4589 34.3448 19.4589Z" fill="#F8F8F8"/>
<path d="M34.3448 21.3122V26.9249M28.6897 26.4462C29.1861 26.8267 29.8122 26.9968 30.4329 26.9196H30.9073C31.279 26.919 31.6352 26.7709 31.8977 26.5078C32.1602 26.2447 32.3075 25.8881 32.3073 25.5164C32.3075 25.1447 32.1602 24.7881 31.8977 24.525C31.6352 24.2619 31.279 24.1138 30.9073 24.1132H29.9574C29.7733 24.1131 29.591 24.0767 29.421 24.0061C29.251 23.9355 29.0966 23.8321 28.9666 23.7017C28.8366 23.5714 28.7335 23.4168 28.6633 23.2466C28.5931 23.0765 28.5571 22.8941 28.5574 22.7101C28.5571 22.526 28.5931 22.3437 28.6633 22.1735C28.7335 22.0033 28.8366 21.8487 28.9666 21.7184C29.0966 21.5881 29.251 21.4847 29.421 21.4141C29.591 21.3434 29.7733 21.307 29.9574 21.3069H30.4329C31.0529 21.2307 31.6781 21.4011 32.1738 21.7813M40.4022 25.8584C40.2168 26.1826 39.949 26.4519 39.626 26.6392C39.303 26.8265 38.9361 26.925 38.5627 26.9249C38.001 26.9249 37.4623 26.7017 37.0651 26.3045C36.6679 25.9073 36.4448 25.3686 36.4448 24.8069V23.4302C36.4448 22.8685 36.6679 22.3297 37.0651 21.9325C37.4623 21.5353 38.001 21.3122 38.5627 21.3122C38.9355 21.312 39.3017 21.4102 39.6243 21.5969C39.947 21.7836 40.2146 22.0521 40.4001 22.3754" stroke="#F8F8F8" stroke-width="1.05899" stroke-linecap="round" stroke-linejoin="round"/>
</svg>
