<svg width="46" height="46" viewBox="0 0 46 46" fill="none" xmlns="http://www.w3.org/2000/svg">
<path d="M45.6268 12.437C45.6268 11.0578 45.5104 9.68423 45.1811 8.34149C44.5896 5.89568 43.195 4.02734 41.108 2.65516C40.0344 1.95436 38.8528 1.52406 37.597 1.297C36.6325 1.12827 35.6564 1.03548 34.6774 1.01949C34.6045 1.01248 34.5246 0.997059 34.4433 0.990051H11.9742C11.6896 1.01248 11.4051 1.02649 11.1206 1.04051C9.72597 1.1204 8.33978 1.26617 7.02507 1.79177C4.5288 2.7771 2.72493 4.49968 1.67373 6.98193C1.30931 7.82149 1.1257 8.71152 0.995348 9.61695C0.886022 10.3472 0.827154 11.0844 0.80613 11.8217C0.80613 11.8806 0.792114 11.938 0.792114 11.9969V34.8389L0.835564 35.628C0.930874 37.1544 1.1271 38.6653 1.77044 40.0669C2.98283 42.7174 5.01937 44.461 7.81558 45.3005C8.59627 45.5416 9.41481 45.6509 10.232 45.7238C11.2691 45.8261 12.3049 45.8401 13.3421 45.8401H33.957C34.9353 45.8401 35.9136 45.7743 36.892 45.6509C38.4323 45.4533 39.8774 45.0006 41.1851 44.14C42.733 43.1372 43.9535 41.7033 44.6961 40.015C45.0465 39.2259 45.2441 38.3878 45.3899 37.5398C45.6016 36.277 45.645 34.9987 45.645 33.7218C45.638 26.6255 45.645 19.5305 45.638 12.4342L45.6268 12.437ZM33.6248 19.8893V30.5626C33.6248 31.3433 33.5155 32.11 33.1651 32.8178C32.6255 33.9195 31.7495 34.6132 30.5735 34.9496C29.9221 35.1363 29.2505 35.2441 28.5734 35.2706C27.7219 35.3209 26.8816 35.0564 26.2125 34.5273C25.5433 33.9983 25.0921 33.2417 24.9446 32.4015C24.8096 31.6456 24.9263 30.8662 25.277 30.1831C25.6277 29.5 26.1929 28.9508 26.8859 28.62C27.4844 28.3284 28.1347 28.1532 28.7836 28.0215C29.4915 27.8687 30.1993 27.7299 30.9001 27.5688C31.4187 27.4524 31.7537 27.1385 31.856 26.6045C31.8854 26.4881 31.8924 26.3634 31.8924 26.247V16.0714C31.8899 15.9553 31.8729 15.8399 31.842 15.728C31.7691 15.4434 31.5644 15.2752 31.2729 15.2893C30.973 15.3033 30.6814 15.3551 30.3899 15.414C28.9659 15.6915 27.5432 15.9761 26.1262 16.2676L19.2135 17.6622C19.184 17.6692 19.1476 17.6846 19.1182 17.6846C18.5996 17.8304 18.4173 18.0645 18.3949 18.6041C18.3879 18.684 18.3949 18.7653 18.3949 18.8451C18.3879 23.7073 18.3949 28.5695 18.3879 33.4303C18.3879 34.2194 18.2996 34.9931 17.9871 35.7219C17.4685 36.9189 16.549 37.6716 15.3086 38.029C14.6528 38.2198 13.9757 38.3277 13.2931 38.3499C11.5046 38.4158 10.0147 37.2258 9.70915 35.4668C9.44565 33.9489 10.1394 32.3132 11.862 31.583C12.5334 31.3055 13.2272 31.1527 13.935 31.0069L15.5412 30.6789C16.2561 30.5262 16.6289 30.0734 16.6653 29.3432V12.465C16.6653 12.231 16.6948 11.9983 16.7452 11.7712C16.877 11.2386 17.2568 10.9317 17.767 10.8069C18.2421 10.6822 18.7313 10.5953 19.2121 10.493C20.5842 10.2154 21.9494 9.93792 23.3216 9.66741L27.5628 8.80542C28.8187 8.55734 30.0661 8.30225 31.322 8.05416C31.7312 7.97427 32.1475 7.88597 32.5624 7.85653C33.1384 7.80608 33.5407 8.17049 33.5996 8.75496C33.6136 8.89372 33.622 9.03248 33.622 9.17124V19.8809L33.6248 19.8893Z" fill="#F8F8F8"/>
</svg>
