<svg width="43" height="43" viewBox="0 0 43 43" fill="none" xmlns="http://www.w3.org/2000/svg">
<path d="M33.9121 19.086C27.1345 15.0619 15.8033 14.6383 9.34343 16.6504C8.28443 16.9681 7.22544 16.3327 6.90774 15.3796C6.59004 14.3206 7.22544 13.2616 8.17853 12.9439C15.6974 10.72 28.0876 11.1436 35.9242 15.8032C36.8773 16.3327 37.195 17.6035 36.6655 18.5565C36.136 19.2978 34.8652 19.6155 33.9121 19.086ZM33.7003 25.0164C33.1708 25.7577 32.2177 26.0754 31.4764 25.5459C25.7578 22.0512 17.0741 20.9922 10.4024 23.1102C9.55523 23.322 8.60213 22.8984 8.39033 22.0512C8.17853 21.204 8.60213 20.2509 9.44933 20.0391C17.18 17.7094 26.7109 18.8742 33.2767 22.8984C33.9121 23.2161 34.2298 24.2751 33.7003 25.0164ZM31.1587 30.8409C30.7351 31.4763 29.9938 31.6881 29.3584 31.2645C24.3811 28.1934 18.1331 27.558 10.7201 29.2524C9.97882 29.4642 9.34343 28.9347 9.13163 28.2993C8.91983 27.558 9.44933 26.9226 10.0847 26.7108C18.1331 24.9105 25.1224 25.6518 30.6292 29.0406C31.3705 29.3583 31.4764 30.2055 31.1587 30.8409ZM21.416 0.235962C18.6346 0.235962 15.8804 0.783795 13.3108 1.84818C10.7411 2.91257 8.40626 4.47267 6.43952 6.4394C2.46753 10.4114 0.236084 15.7986 0.236084 21.4158C0.236084 27.0331 2.46753 32.4203 6.43952 36.3923C8.40626 38.359 10.7411 39.9191 13.3108 40.9835C15.8804 42.0479 18.6346 42.5957 21.416 42.5957C27.0332 42.5957 32.4204 40.3643 36.3924 36.3923C40.3644 32.4203 42.5958 27.0331 42.5958 21.4158C42.5958 18.6344 42.048 15.8803 40.9836 13.3106C39.9192 10.741 38.3591 8.40613 36.3924 6.4394C34.4256 4.47267 32.0908 2.91257 29.5211 1.84818C26.9515 0.783795 24.1973 0.235962 21.416 0.235962Z" fill="#F8F8F8"/>
</svg>
