<svg width="51" height="51" viewBox="0 0 51 51" fill="none" xmlns="http://www.w3.org/2000/svg">
<path d="M35.3269 12.3267C33.8791 10.6738 33.0812 8.55121 33.0818 6.35394H26.5372V32.617C26.4868 34.0382 25.8867 35.3844 24.8635 36.372C23.8403 37.3597 22.4738 37.9117 21.0517 37.9119C18.0441 37.9119 15.5449 35.4551 15.5449 32.4052C15.5449 28.7622 19.0607 26.03 22.6825 27.1526V20.4597C15.3754 19.4855 8.97913 25.1617 8.97913 32.4052C8.97913 39.4581 14.8248 44.4777 21.0305 44.4777C27.681 44.4777 33.0818 39.0768 33.0818 32.4052V19.083C35.7357 20.9889 38.9219 22.0115 42.1892 22.0059V15.4613C42.1892 15.4613 38.2073 15.6519 35.3269 12.3267Z" fill="#F8F8F8"/>
</svg>
