<svg width="52" height="51" viewBox="0 0 52 51" fill="none" xmlns="http://www.w3.org/2000/svg">
<path d="M21.5561 31.7697L32.5484 25.4158L21.5561 19.0618V31.7697ZM46.04 15.1859C46.3153 16.1814 46.506 17.5157 46.633 19.2101C46.7813 20.9045 46.8448 22.3659 46.8448 23.6367L46.9719 25.4158C46.9719 30.0542 46.633 33.4641 46.04 35.6457C45.5105 37.5518 44.2821 38.7803 42.3759 39.3098C41.3804 39.5851 39.559 39.7757 36.7632 39.9028C34.0098 40.0511 31.4894 40.1146 29.1596 40.1146L25.792 40.2417C16.9177 40.2417 11.3897 39.9028 9.20821 39.3098C7.30203 38.7803 6.07359 37.5518 5.5441 35.6457C5.26876 34.6502 5.07814 33.3159 4.95106 31.6215C4.8028 29.9271 4.73926 28.4657 4.73926 27.1949L4.61218 25.4158C4.61218 20.7774 4.95106 17.3674 5.5441 15.1859C6.07359 13.2797 7.30203 12.0513 9.20821 11.5218C10.2037 11.2465 12.0251 11.0558 14.8209 10.9288C17.5743 10.7805 20.0947 10.717 22.4244 10.717L25.792 10.5899C34.6664 10.5899 40.1944 10.9288 42.3759 11.5218C44.2821 12.0513 45.5105 13.2797 46.04 15.1859Z" fill="#F8F8F8"/>
</svg>
