<svg width="32" height="33" viewBox="0 0 32 33" fill="none" xmlns="http://www.w3.org/2000/svg">
<path d="M18.0703 9.96094C18.0703 9.67969 18.0703 9.39844 18.0703 9.11719C18.1641 7.89844 18.0703 6.9375 17.7891 6.23438C17.5547 5.48438 16.8281 5.10938 15.6094 5.10938C15.5156 5.01562 15.0234 5.15625 14.1328 5.53125C13.2422 5.90625 12.4688 6.91406 11.8125 8.55469L6.60938 8.0625C6.60938 6.23438 7.40625 4.59375 9 3.14062C10.6406 1.64062 13.0078 0.84375 16.1016 0.75C19.1016 0.890625 21.1875 1.64062 22.3594 3C23.4844 4.35938 24.0234 5.53125 23.9766 6.51562V16.8516C24.0703 17.8828 24.4453 18.75 25.1016 19.4531C25.7578 20.1562 26.1328 20.5312 26.2266 20.5781L22.2891 24.5156C21.8672 24.1406 21.3047 23.6016 20.6016 22.8984C19.8516 22.1953 19.3359 21.6328 19.0547 21.2109C17.8828 22.8984 16.3125 23.9531 14.3438 24.375C12.3281 24.7969 10.4766 24.5156 8.78906 23.5312C7.14844 22.5469 6.28125 20.7656 6.1875 18.1875C6.23438 15.8438 7.00781 14.0859 8.50781 12.9141C9.96094 11.7422 11.625 10.9453 13.5 10.5234C15.3281 10.1484 16.8516 9.96094 18.0703 9.96094ZM18.0703 16.0781V13.1953C16.8047 13.1953 15.5156 13.4766 14.2031 14.0391C12.9375 14.5547 12.2578 15.6328 12.1641 17.2734C12.2578 18.4922 12.7734 19.3359 13.7109 19.8047C14.6484 20.2734 15.5859 20.2266 16.5234 19.6641C17.5078 19.1016 18.0234 17.9062 18.0703 16.0781ZM27.6328 27.5391C28.0547 26.7891 27.9375 26.5078 27.2812 26.6953C23.0156 28.6172 19.2656 29.5781 16.0312 29.5781C12.75 29.5312 9.91406 28.9922 7.52344 27.9609C5.13281 26.9297 3.07031 25.8516 1.33594 24.7266C1.24219 24.6797 1.14844 24.6328 1.05469 24.5859C0.867188 24.4922 0.703125 24.4922 0.5625 24.5859C0.421875 24.6797 0.46875 24.8672 0.703125 25.1484C1.26562 25.8984 2.25 26.8125 3.65625 27.8906C5.01562 29.0156 6.70312 30 8.71875 30.8438C10.6875 31.7344 12.9141 32.2031 15.3984 32.25C19.0547 32.1094 21.9375 31.4062 24.0469 30.1406C26.1562 28.9219 27.3516 28.0547 27.6328 27.5391ZM30.4453 27.6797C30.6797 27.0703 30.8438 26.4844 30.9375 25.9219C31.0312 25.3125 31.0312 24.8906 30.9375 24.6562C30.7031 24.4219 30.2578 24.2812 29.6016 24.2344C28.8984 24.1875 28.2656 24.1875 27.7031 24.2344C27.0938 24.3281 26.4844 24.5156 25.875 24.7969C25.2656 25.0312 24.9844 25.2656 25.0312 25.5C25.0312 25.5938 25.2188 25.6172 25.5938 25.5703C25.6875 25.5703 25.8281 25.5469 26.0156 25.5C26.0625 25.5 26.1328 25.5 26.2266 25.5C26.7422 25.4531 27.3281 25.4062 27.9844 25.3594C28.6406 25.3594 29.1094 25.4766 29.3906 25.7109C29.5781 26.1328 29.5078 26.8125 29.1797 27.75C28.8984 28.6406 28.6641 29.25 28.4766 29.5781C28.3359 30.0938 28.5 30.1875 28.9688 29.8594C29.3906 29.5312 29.8828 28.8047 30.4453 27.6797Z" fill="white"/>
</svg>
