<svg width="50" height="50" viewBox="0 0 50 50" fill="none" xmlns="http://www.w3.org/2000/svg">
<g clip-path="url(#clip0_341_234)">
<rect width="50" height="50" fill="white"/>
<path d="M42.0859 7.92187C42.6953 8.39062 43 8.99999 43 9.74999V33.375C42.9531 34.9687 42.2969 36.3047 41.0312 37.3828C39.7656 38.4141 38.1719 38.9531 36.25 39C34.3281 38.9531 32.7344 38.4141 31.4688 37.3828C30.2031 36.3047 29.5469 34.9687 29.5 33.375C29.5469 31.7812 30.2031 30.4453 31.4688 29.3672C32.7344 28.3359 34.3281 27.7969 36.25 27.75C37.0469 27.75 37.7969 27.8672 38.5 28.1016V17.8359L20.5 23.25V37.875C20.4531 39.4687 19.7969 40.8047 18.5312 41.8828C17.2656 42.9141 15.6719 43.4531 13.75 43.5C11.8281 43.4531 10.2344 42.9141 8.96875 41.8828C7.70312 40.8047 7.04688 39.4687 7 37.875C7.04688 36.2812 7.70312 34.9453 8.96875 33.8672C10.2344 32.8359 11.8281 32.2969 13.75 32.25C14.5469 32.25 15.2969 32.3672 16 32.6016V16.5C16.0469 15.4219 16.5859 14.6953 17.6172 14.3203L40.1172 7.5703C40.8203 7.3828 41.4766 7.49999 42.0859 7.92187Z" fill="black"/>
</g>
<defs>
<clipPath id="clip0_341_234">
<rect width="50" height="50" rx="5" fill="white"/>
</clipPath>
</defs>
</svg>
