<svg width="26" height="26" viewBox="0 0 26 26" fill="none" xmlns="http://www.w3.org/2000/svg">
<path d="M26 15.462C26.0041 13.6671 24.5698 12.214 22.8104 12.214C22.3716 12.214 21.9531 12.3045 21.5671 12.4651C21.3071 9.55054 18.8936 7.26172 15.9478 7.26172C15.2246 7.26172 14.5257 7.39757 13.904 7.64868C13.6562 7.73924 13.5871 7.82981 13.5871 8.0274V18.3065C13.5871 18.5124 13.7456 18.6606 13.9365 18.6853H22.8064C24.5657 18.6853 26 17.2444 26 15.462Z" fill="white"/>
<path d="M13.2986 8.36908C13.2824 8.24558 13.2174 8.13032 13.1158 8.07269C13.0711 8.03975 13.002 8.01505 12.9451 8.01505C12.8558 8.01505 12.7745 8.04799 12.7176 8.09327C12.6404 8.16325 12.5916 8.26617 12.5835 8.36908V8.40201L12.4494 15.676L12.5185 17.0139L12.5876 18.3189C12.5998 18.5124 12.7582 18.6729 12.9492 18.6729C13.1402 18.6729 13.2986 18.5124 13.2986 18.3189L13.4571 15.676L13.2986 8.36908Z" fill="white"/>
<path d="M6.43194 10.1227C6.5457 10.1227 6.64728 10.2133 6.64728 10.3409L6.86263 15.6925L6.64728 18.4835C6.64728 18.6112 6.5457 18.7017 6.43194 18.7017C6.30598 18.7017 6.21659 18.6112 6.2044 18.4835L6.02562 15.6925L6.2044 10.3409C6.21659 10.2133 6.30598 10.1227 6.43194 10.1227Z" fill="white"/>
<path d="M5.58681 11.3207C5.58681 11.2054 5.49742 11.1148 5.39584 11.1148C5.28208 11.1148 5.20488 11.2054 5.19269 11.3207L4.98953 15.6678L5.19269 18.4794C5.20488 18.5947 5.28208 18.6853 5.39584 18.6853C5.49742 18.6853 5.58681 18.5947 5.58681 18.4794L5.82247 15.6678L5.58681 11.3207Z" fill="white"/>
<path d="M4.762 15.6678L4.52633 12.992C4.51415 12.9014 4.43695 12.8191 4.34756 12.8191C4.25411 12.8191 4.17691 12.9014 4.17691 12.992L3.94937 15.6678L4.17691 18.4794C4.17691 18.5823 4.25817 18.6606 4.34756 18.6606C4.43695 18.6606 4.51415 18.5823 4.52633 18.4794L4.762 15.6678Z" fill="white"/>
<path d="M0.394124 14.2023C0.381934 14.1447 0.349429 14.0994 0.292546 14.0994C0.235662 14.0994 0.203157 14.1447 0.190967 14.2023L0 15.6678L0.190967 17.1086C0.203157 17.1662 0.235662 17.2115 0.292546 17.2115C0.349429 17.2115 0.381934 17.1662 0.394124 17.1086L0.621659 15.6678L0.394124 14.2023Z" fill="white"/>
<path d="M1.25144 13.1978C1.30833 13.1978 1.35302 13.2431 1.36521 13.3008L1.65776 15.6678L1.36521 17.9895C1.35302 18.0472 1.30833 18.0925 1.25144 18.0925C1.19456 18.0925 1.14987 18.0472 1.14987 17.9772L0.889825 15.6678L1.14987 13.3008C1.14987 13.2431 1.19456 13.1978 1.25144 13.1978Z" fill="white"/>
<path d="M2.40538 12.8644C2.40538 12.7862 2.3485 12.7285 2.27942 12.7285C2.21035 12.7285 2.15347 12.7862 2.14534 12.8644L1.90968 15.6678L2.14534 18.3765C2.15753 18.4465 2.21441 18.5041 2.27942 18.5041C2.3485 18.5041 2.40538 18.4465 2.40538 18.3765L2.68574 15.6678L2.40538 12.8644Z" fill="white"/>
<path d="M3.30739 12.638C3.38458 12.638 3.45366 12.6956 3.46585 12.7862L3.72589 15.6678L3.46585 18.4588C3.45366 18.5494 3.38458 18.607 3.30739 18.607C3.23019 18.607 3.16111 18.5494 3.16111 18.4588L2.92545 15.6678L3.16111 12.7862C3.16111 12.6956 3.23019 12.638 3.30739 12.638Z" fill="white"/>
<path d="M12.0309 8.70252C12.1203 8.76016 12.1772 8.86307 12.1894 8.97834L12.3235 15.6801L12.1975 18.0925L12.1853 18.3683C12.1853 18.463 12.1528 18.5412 12.0838 18.5988C12.0269 18.6564 11.9456 18.7017 11.8562 18.7017C11.7546 18.7017 11.6652 18.6523 11.5962 18.5741C11.5515 18.5165 11.5271 18.4506 11.5271 18.3806V18.3683C11.4011 15.6801 11.4011 15.6678 11.4011 15.6678L11.5149 9.04832L11.5271 8.97834C11.5271 8.86307 11.584 8.76016 11.6734 8.70252C11.7262 8.66959 11.7871 8.64489 11.8522 8.64489C11.9172 8.64489 11.974 8.66959 12.0309 8.70252Z" fill="white"/>
<path d="M7.75246 9.87987C7.74433 9.74402 7.64276 9.62876 7.50461 9.62876C7.37865 9.62876 7.26895 9.74402 7.26895 9.87987L7.09017 15.6678L7.26895 18.4341C7.28114 18.57 7.38272 18.6729 7.50461 18.6729C7.63869 18.6729 7.74027 18.57 7.75246 18.4341L7.95562 15.6678L7.75246 9.87987Z" fill="white"/>
<path d="M10.7551 9.73167C10.9258 9.73167 11.0477 9.86752 11.0598 10.0528L11.2183 15.6801L11.0598 18.3806C11.0598 18.5535 10.9258 18.6894 10.7551 18.6894C10.5845 18.6894 10.4504 18.5535 10.4382 18.3806L10.3041 15.6801L10.4382 10.0528C10.4504 9.86752 10.5845 9.73167 10.7551 9.73167Z" fill="white"/>
<path d="M8.8495 9.68639C8.83731 9.53819 8.72355 9.41058 8.57727 9.41058C8.44319 9.41058 8.31723 9.53819 8.31723 9.68639L8.15877 15.6678L8.31723 18.4218C8.32942 18.57 8.44319 18.6853 8.57727 18.6853C8.72355 18.6853 8.83731 18.57 8.8495 18.4218L9.02828 15.6678L8.8495 9.68639Z" fill="white"/>
<path d="M9.66214 9.55054C9.8206 9.55054 9.94249 9.67404 9.94249 9.83459L10.1131 15.6678L9.94249 18.4012C9.94249 18.5576 9.81653 18.6853 9.66214 18.6853C9.50774 18.6853 9.39397 18.5618 9.38178 18.4012L9.22332 15.6678L9.38178 9.83459C9.38178 9.67816 9.50367 9.55054 9.66214 9.55054Z" fill="white"/>
</svg>
