<svg width="25" height="26" viewBox="0 0 25 26" fill="none" xmlns="http://www.w3.org/2000/svg">
<g clip-path="url(#clip0_158_3199)">
<path fill-rule="evenodd" clip-rule="evenodd" d="M0 13C0 6.04805 5.5998 0.40625 12.5 0.40625C19.4002 0.40625 25 6.04805 25 13C25 19.952 19.4002 25.5938 12.5 25.5938C5.5998 25.5938 0 19.952 0 13ZM19.8436 11.5377C20.0705 11.6698 20.2317 11.7358 20.4938 11.7358C21.1088 11.7358 21.6632 11.2432 21.6632 10.5526C21.6632 9.94829 21.4061 9.63345 21.013 9.40493C18.1955 7.74946 14.3396 6.97759 10.6602 6.97759C8.49788 6.97759 6.51199 7.22641 4.7378 7.74946C4.28417 7.88149 3.86078 8.27251 3.86078 8.96313C3.86078 9.63852 4.36985 10.1616 5.03517 10.1616C5.23694 10.1616 5.42819 10.1051 5.59138 10.0568C5.62387 10.0472 5.65525 10.038 5.68538 10.0295C9.8386 8.86157 16.2549 9.37954 19.8436 11.5377ZM18.3786 15.4285C18.5377 15.5156 18.7016 15.6053 18.9313 15.6053C19.4807 15.6053 19.9041 15.1635 19.9092 14.6151C19.9092 14.1733 19.7479 13.8584 19.3396 13.6147C16.8497 12.1217 13.6894 11.3041 10.4182 11.3041C8.32147 11.3041 6.89001 11.5987 5.4888 11.9948C4.96965 12.142 4.70755 12.5026 4.70755 13.0459C4.70755 13.5893 5.14606 14.0311 5.68538 14.0311C5.8522 14.0311 5.96722 13.9954 6.11266 13.9502C6.16496 13.934 6.22119 13.9165 6.28517 13.8991C10.4636 12.7565 15.1612 13.5131 18.3114 15.392C18.3338 15.404 18.3561 15.4162 18.3786 15.4285ZM17.0362 18.7538C17.2328 18.8706 17.3638 18.9366 17.5755 18.9366C17.9838 18.9366 18.3416 18.6166 18.3416 18.1545C18.3416 17.6924 18.1602 17.5147 17.8527 17.3166C14.2539 15.1483 10.0352 15.067 5.90715 15.9862C5.52913 16.0674 5.22167 16.3163 5.22167 16.8393C5.22167 17.2506 5.52913 17.6416 6.01804 17.6416C6.13282 17.6416 6.31598 17.5915 6.48454 17.5454C6.53063 17.5328 6.57563 17.5205 6.61784 17.5096C10.2317 16.7631 13.891 16.8444 17.0362 18.7538Z" fill="white"/>
</g>
<defs>
<clipPath id="clip0_158_3199">
<rect width="25" height="26" fill="white"/>
</clipPath>
</defs>
</svg>
