<svg width="50" height="50" viewBox="0 0 50 50" fill="none" xmlns="http://www.w3.org/2000/svg">
<rect width="50" height="50" rx="5" fill="white"/>
<path d="M40.5 22.2656C37.3125 22.2656 34.4297 21.3516 31.8516 19.5234V32.0391C31.8047 35.0391 30.8906 37.5234 29.1094 39.4922C27.3281 41.5078 25.1484 42.7734 22.5703 43.2891C19.9453 43.8047 17.3203 43.3594 14.6953 41.9531C12.1641 40.4062 10.4766 38.3672 9.63281 35.8359C8.78906 33.3047 8.78906 30.7734 9.63281 28.2422C10.4766 25.7578 12.1641 23.7422 14.6953 22.1953C16.9922 20.8828 19.4297 20.3906 22.0078 20.7188V27.0469C19.9922 26.5312 18.2812 26.9062 16.875 28.1719C15.4688 29.4844 14.9531 31.1719 15.3281 33.2344C15.8906 35.2031 17.0625 36.4922 18.8438 37.1016C20.6719 37.6641 22.3828 37.2656 23.9766 35.9062C25.1016 34.875 25.6641 33.5859 25.6641 32.0391V7.5H31.8516C31.8516 8.01562 31.8984 8.53125 31.9922 9.04688C32.5078 11.4375 33.7734 13.3125 35.7891 14.6719C37.2422 15.6094 38.8125 16.1016 40.5 16.1484V22.2656Z" fill="black"/>
</svg>
