<svg width="26" height="26" viewBox="0 0 26 26" fill="none" xmlns="http://www.w3.org/2000/svg">
<path fill-rule="evenodd" clip-rule="evenodd" d="M0.780069 11.9423C0.781028 9.25449 0.795181 7.27154 1.0015 5.73696C1.21833 4.12421 1.63445 3.12394 2.3792 2.37919C3.12394 1.63445 4.12421 1.21833 5.73696 1.0015C7.37214 0.781655 9.51639 0.779997 12.48 0.779998L13.52 0.779998C16.4836 0.779998 18.6279 0.781654 20.263 1.0015C21.8758 1.21833 22.8761 1.63445 23.6208 2.37919C24.3656 3.12394 24.7817 4.12421 24.9985 5.73695C25.1165 6.61439 25.1716 7.63841 25.1974 8.85695C23.525 7.50655 20.5494 5.20017 17.16 5.20017C14.7938 5.20017 12.9028 6.5005 10.7795 7.96055C8.20677 9.72961 5.29307 11.7331 0.780069 11.9423ZM4.50964e-05 11.9602C0.00162868 6.42198 0.0546418 3.60066 1.82765 1.82765C3.65531 -1.95344e-06 6.59687 -1.69628e-06 12.48 -3.0893e-06L13.52 -2.99839e-06C19.4031 -2.48407e-06 22.3447 -2.22691e-06 24.1723 1.82765C25.9411 3.59645 25.9981 6.40857 25.9999 11.9207C26 12.0151 26 12.1104 26 12.2064C26 12.2969 26 12.3881 26 12.48L26 13.52C26 19.4031 26 22.3447 24.1723 24.1723C23.584 24.7607 22.8802 25.1597 22 25.4302C20.146 26 17.5092 26 13.52 26C13.52 26 13.52 26 13.52 26L12.48 26C6.59687 26 3.65531 26 1.82765 24.1723C0.11423 22.4589 0.00713975 19.7665 0.000447317 14.5891C0.000126904 14.3405 2.96518e-05 14.0863 4.87897e-06 13.8261L4.88614e-06 13.7441C1.07793e-06 13.6699 1.08446e-06 13.5952 1.09104e-06 13.52L1.18196e-06 12.48C1.18857e-06 12.4043 1.19514e-06 12.3292 5.01637e-06 12.2545L5.0233e-06 12.1752L4.50964e-05 11.9602ZM20.1501 13.2543C20.1501 12.6117 20.6776 12.0908 21.3201 12.0908C21.9627 12.0908 22.4901 12.6117 22.4901 13.2543L22.4901 17.9473C22.4901 18.5899 21.9627 19.1108 21.3201 19.1108C20.6776 19.1108 20.1501 18.5899 20.1501 17.9473L20.1501 13.2543ZM17.1603 9.10037C16.5177 9.10037 15.9903 9.62129 15.9903 10.2639L15.9903 20.9369C15.9903 21.5795 16.5177 22.1004 17.1603 22.1004C17.8028 22.1004 18.3303 21.5795 18.3303 20.9369L18.3303 10.2639C18.3303 9.62129 17.8028 9.10037 17.1603 9.10037ZM11.8303 13.2543C11.8303 12.6117 12.3577 12.0908 13.0003 12.0908C13.6429 12.0908 14.1703 12.6117 14.1703 13.2543L14.1703 17.9473C14.1703 18.5899 13.6429 19.1108 13.0003 19.1108C12.3577 19.1108 11.8303 18.5899 11.8303 17.9473L11.8303 13.2543ZM8.83975 13.7803C8.19717 13.7803 7.66975 14.3012 7.66975 14.9438L7.66975 16.2568C7.66975 16.8994 8.19717 17.4203 8.83975 17.4203C9.48234 17.4203 10.0098 16.8994 10.0098 16.2568L10.0098 14.9438C10.0098 14.3012 9.48234 13.7803 8.83975 13.7803ZM3.50975 14.9438C3.50975 14.3012 4.03717 13.7803 4.67975 13.7803C5.32234 13.7803 5.84975 14.3012 5.84975 14.9438L5.84975 16.2568C5.84975 16.8994 5.32234 17.4203 4.67975 17.4203C4.03717 17.4203 3.50975 16.8994 3.50975 16.2568L3.50975 14.9438Z" fill="white"/>
</svg>
