<svg width="26" height="26" viewBox="0 0 26 26" fill="none" xmlns="http://www.w3.org/2000/svg">
<g clip-path="url(#clip0_158_3205)">
<path d="M5.35493 2.65895C7.26773 1.24159 9.52848 0.384777 11.8847 0.171875V4.07086C10.3616 4.26832 8.907 4.85146 7.66274 5.77345C6.10474 6.92792 4.95899 8.55252 4.39452 10.4077C3.83004 12.2628 3.87671 14.2502 4.52764 16.0768C5.17857 17.9034 6.3993 19.4725 8.00978 20.5526C9.62026 21.6326 11.5352 22.1665 13.4722 22.0755C15.4091 21.9845 17.2655 21.2733 18.7677 20.0471C20.2697 18.8206 21.3379 17.144 21.8148 15.2645C22.1474 13.9534 22.1799 12.5921 21.9194 11.2796L25.1935 8.64741L25.1913 8.62619C26.0751 11.0574 26.2102 13.7023 25.5722 16.2177C24.891 18.9027 23.365 21.2979 21.2191 23.0498C19.0733 24.8016 16.4213 25.8175 13.6541 25.9475C10.887 26.0775 8.15138 25.3148 5.8507 23.7718C3.55003 22.229 1.80612 19.9875 0.876225 17.378C-0.0536756 14.7686 -0.120345 11.9294 0.686049 9.27926C1.49244 6.62906 3.12921 4.30819 5.35493 2.65895Z" fill="white"/>
<path d="M22.7249 4.47747L22.7386 4.51182L20.5507 7.98687C19.7549 6.80778 18.6887 5.82635 17.4409 5.13168V13.0398C17.4409 15.4661 15.474 17.433 13.0477 17.433C10.6214 17.433 8.65454 15.4661 8.65454 13.0398C8.65454 10.6135 10.6214 8.64659 13.0477 8.64659C13.957 8.64659 14.8018 8.92287 15.5028 9.39604V0.351562C18.355 0.900169 20.8735 2.38663 22.7249 4.47747Z" fill="white"/>
</g>
<defs>
<clipPath id="clip0_158_3205">
<rect width="26" height="26" fill="white"/>
</clipPath>
</defs>
</svg>
