<svg width="64" height="45" viewBox="0 0 64 45" fill="none" xmlns="http://www.w3.org/2000/svg">
<g clip-path="url(#clip0_341_239)">
<path d="M62.603 6.99597C62.2348 5.63857 61.5179 4.40113 60.5233 3.40662C59.5288 2.41211 58.2914 1.69515 56.934 1.32697C51.964 -0.0300289 31.96 -0.0300293 31.96 -0.0300293C31.96 -0.0300293 11.955 0.00997102 6.984 1.36697C5.6266 1.73515 4.38916 2.45211 3.39465 3.44662C2.40014 4.44113 1.68318 5.67857 1.315 7.03597C0 12.007 0 22.4 0 22.4C0 22.4 0 32.793 1.356 37.804C1.72418 39.1614 2.44114 40.3988 3.43565 41.3933C4.43016 42.3878 5.6676 43.1048 7.025 43.473C11.995 44.83 32 44.83 32 44.83C32 44.83 52.005 44.83 56.976 43.474C58.3334 43.1058 59.5708 42.3888 60.5653 41.3943C61.5599 40.3998 62.2768 39.1624 62.645 37.805C64 32.834 64 22.4 64 22.4C64 22.4 63.96 12.007 62.603 6.99597Z" fill="white"/>
<path d="M25.5918 32.012L42.1868 22.4L25.5908 12.788L25.5918 32.012Z" fill="black"/>
</g>
<defs>
<clipPath id="clip0_341_239">
<rect width="64" height="44.9" fill="white"/>
</clipPath>
</defs>
</svg>
